<svg width="66" height="48" viewBox="0 0 66 48" fill="none" xmlns="http://www.w3.org/2000/svg">
<path d="M13.0508 48C11.0621 48 9.25989 47.6167 7.64407 46.8497C6.02825 46.0828 4.66102 44.9742 3.54237 43.5233C2.42373 42.0724 1.55367 40.3004 0.932203 38.2073C0.310734 36.1141 0 33.7408 0 31.0881C0 28.4352 0.310734 26.0622 0.932203 23.9689C1.55367 21.8756 2.42373 20.1036 3.54237 18.6529C4.66102 17.2021 6.02825 16.0932 7.64407 15.3264C9.25989 14.5596 11.0621 14.1762 13.0508 14.1762C15.6196 14.1762 17.6808 14.7358 19.2345 15.8549C20.7881 16.9741 21.8964 18.2798 22.5593 19.772H22.8701L26.3503 14.9223H29.3955V43.9585H33.6215V46.7565C33.0413 47.0882 32.2853 47.3782 31.3531 47.6269C30.4209 47.8756 29.4369 48 28.4011 48C26.4124 48 24.9623 47.5128 24.0508 46.5389C23.1394 45.5649 22.6836 44.3108 22.6836 42.7772V42.2176H22.3729C21.6685 43.7929 20.5603 45.1502 19.048 46.2902C17.5358 47.4302 15.5367 48 13.0508 48ZM15.226 43.5233C16.1375 43.5233 17.0282 43.3887 17.8983 43.1192C18.7684 42.8496 19.5452 42.4455 20.2288 41.9067C20.9124 41.368 21.451 40.7254 21.8446 39.9793C22.2382 39.2332 22.435 38.3835 22.435 37.4301V24.7461C22.435 23.7927 22.2382 22.943 21.8446 22.1969C21.451 21.4508 20.9124 20.8083 20.2288 20.2694C19.5452 19.7305 18.7684 19.3264 17.8983 19.057C17.0282 18.7876 16.1375 18.6529 15.226 18.6529C12.8644 18.6529 10.9793 19.4611 9.57062 21.0777C8.16197 22.6943 7.45763 24.9326 7.45763 27.7927V34.3834C7.45763 37.2435 8.16197 39.4819 9.57062 41.0984C10.9793 42.715 12.8644 43.5233 15.226 43.5233Z" fill="#787878"/>
<path d="M37.226 26.2383L39.6497 22.8808L46.548 17.4715L48.9096 19.2746L45.9266 27.4819L43.5028 30.8394L37.226 26.2383ZM37.4124 15.9171L33.435 14.6114L35.8588 7.08808L39.774 8.45596L46.9209 13.3679L46.0508 16.228L37.4124 15.9171ZM45.8644 4.1658V0H53.5706V4.1658L51.1469 12.6218H48.2881L45.8644 4.1658ZM53.5085 27.4819L50.5254 19.2746L52.887 17.4715L59.7853 22.8808L62.209 26.2383L55.9322 30.8394L53.5085 27.4819ZM52.5141 13.3679L59.661 8.45596L63.5763 7.08808L66 14.6114L62.0226 15.9171L53.3842 16.228L52.5141 13.3679Z" fill="#787878"/>
</svg>
