<svg width="165" height="48" viewBox="0 0 165 48" fill="none" xmlns="http://www.w3.org/2000/svg">
<path d="M12.9921 48C11.0124 48 9.21822 47.6167 7.60967 46.8497C6.00112 46.0828 4.64004 44.9742 3.52643 43.5233C2.41282 42.0724 1.54668 40.3004 0.928009 38.2073C0.309336 36.1141 0 33.7408 0 31.0881C0 28.4352 0.309336 26.0622 0.928009 23.9689C1.54668 21.8756 2.41282 20.1036 3.52643 18.6529C4.64004 17.2021 6.00112 16.0932 7.60967 15.3264C9.21822 14.5596 11.0124 14.1762 12.9921 14.1762C15.5493 14.1762 17.6012 14.7358 19.1479 15.8549C20.6946 16.9741 21.7979 18.2798 22.4578 19.772H22.7672L26.2317 14.9223H29.2632V43.9585H33.4702V46.7565C32.8927 47.0882 32.14 47.3782 31.212 47.6269C30.284 47.8756 29.3045 48 28.2733 48C26.2936 48 24.85 47.5128 23.9426 46.5389C23.0353 45.5649 22.5816 44.3108 22.5816 42.7772V42.2176H22.2722C21.571 43.7929 20.4678 45.1502 18.9623 46.2902C17.4569 47.4302 15.4668 48 12.9921 48ZM15.1575 43.5233C16.0649 43.5233 16.9516 43.3887 17.8178 43.1192C18.6839 42.8496 19.4573 42.4455 20.1378 41.9067C20.8183 41.368 21.3545 40.7254 21.7463 39.9793C22.1382 39.2332 22.3341 38.3835 22.3341 37.4301V24.7461C22.3341 23.7927 22.1382 22.943 21.7463 22.1969C21.3545 21.4508 20.8183 20.8083 20.1378 20.2694C19.4573 19.7305 18.6839 19.3264 17.8178 19.057C16.9516 18.7876 16.0649 18.6529 15.1575 18.6529C12.8065 18.6529 10.9299 19.4611 9.52756 21.0777C8.12524 22.6943 7.42407 24.9326 7.42407 27.7927V34.3834C7.42407 37.2435 8.12524 39.4819 9.52756 41.0984C10.9299 42.715 12.8065 43.5233 15.1575 43.5233Z" fill="#787878"/>
<path d="M28.5208 43.8964H32.7278V19.8964L28.5208 19.0881V16.3523L39.4713 14.1762V19.9585H39.7807C40.0693 19.2124 40.4303 18.4974 40.8633 17.8135C41.2964 17.1295 41.8325 16.5181 42.4719 15.9793C43.1113 15.4404 43.8537 15.0052 44.6991 14.6736C45.5445 14.342 46.5035 14.1762 47.5759 14.1762C49.4731 14.1762 50.9888 14.6528 52.1232 15.6062C53.2575 16.5596 53.8245 17.9274 53.8245 19.7098C53.8245 21.1192 53.4635 22.228 52.7418 23.0363C52.0202 23.8446 51.0405 24.2487 49.8031 24.2487C48.5247 24.2487 47.5243 23.9067 46.8026 23.2228C46.0809 22.5389 45.7199 21.6787 45.7199 20.6425C45.7199 19.9378 45.8644 19.3471 46.153 18.8705C46.4416 18.3938 46.7924 18.114 47.2047 18.0311V17.8446C47.081 17.8031 46.9365 17.772 46.7717 17.7513C46.6068 17.7306 46.3593 17.7202 46.0292 17.7202C45.2457 17.7202 44.4724 17.9274 43.7092 18.342C42.9461 18.7565 42.2655 19.285 41.6676 19.9275C41.0697 20.5699 40.5849 21.2953 40.2137 22.1036C39.8425 22.9119 39.6569 23.7098 39.6569 24.4974V43.8964H45.1012V47.2539H28.5208V43.8964Z" fill="#787878"/>
<path d="M62.6715 48C60.238 48 58.0832 47.5856 56.2064 46.7565C54.3297 45.9274 52.7521 44.7668 51.4736 43.2746C50.1951 41.7824 49.2256 40.0001 48.5658 37.9275C47.906 35.8548 47.5759 33.5751 47.5759 31.0881C47.5759 28.4352 47.9679 26.0622 48.7514 23.9689C49.535 21.8756 50.6281 20.1036 52.0304 18.6529C53.4326 17.2021 55.0928 16.0932 57.0107 15.3264C58.9286 14.5596 61.0219 14.1762 63.2902 14.1762C66.8374 14.1762 69.6109 14.9223 71.6114 16.4145C73.6118 17.9067 74.6119 19.8135 74.6119 22.1347C74.6119 23.5855 74.22 24.715 73.4364 25.5233C72.6529 26.3316 71.6012 26.7358 70.2812 26.7358C68.9201 26.7358 67.8891 26.3523 67.1879 25.5855C66.4866 24.8186 66.1361 23.8549 66.1361 22.6943C66.1361 21.7409 66.3836 20.9119 66.8785 20.2073C67.3735 19.5026 68.0129 18.9844 68.7964 18.6529V18.342C68.3015 18.1347 67.6828 17.9378 66.9404 17.7513C66.198 17.5648 65.27 17.4715 64.1563 17.4715C62.7953 17.4715 61.5579 17.7202 60.4443 18.2176C59.3307 18.715 58.382 19.4093 57.5984 20.3005C56.8149 21.1917 56.2064 22.2591 55.7733 23.5026C55.3403 24.7461 55.1237 26.1347 55.1237 27.6684V33.0777C55.1237 36.1865 55.8869 38.6425 57.4128 40.4456C58.9388 42.2487 61.0219 43.1503 63.6614 43.1503C66.1361 43.1503 68.0642 42.6115 69.446 41.5337C70.8278 40.4559 71.8898 39.1296 72.6322 37.5544L75.2925 39.171C74.9213 40.2488 74.3852 41.3058 73.6839 42.342C72.9826 43.3781 72.1165 44.3214 71.0855 45.171C70.0545 46.0206 68.8375 46.7046 67.4353 47.2228C66.0331 47.741 64.445 48 62.6715 48Z" fill="#787878"/>
<path d="M83.3352 48C81.3554 48 79.5613 47.6167 77.9528 46.8497C76.3442 46.0828 74.9831 44.9742 73.8695 43.5233C72.7559 42.0724 71.8898 40.3004 71.2711 38.2073C70.6524 36.1141 70.3431 33.7408 70.3431 31.0881C70.3431 28.4352 70.6524 26.0622 71.2711 23.9689C71.8898 21.8756 72.7559 20.1036 73.8695 18.6529C74.9831 17.2021 76.3442 16.0932 77.9528 15.3264C79.5613 14.5596 81.3554 14.1762 83.3352 14.1762C85.8925 14.1762 87.9443 14.7358 89.491 15.8549C91.0377 16.9741 92.1411 18.2798 92.8009 19.772H93.1102L96.5748 14.9223H99.6063V43.9585H103.813V46.7565C103.236 47.0882 102.483 47.3782 101.555 47.6269C100.627 47.8756 99.6474 48 98.6164 48C96.6367 48 95.193 47.5128 94.2857 46.5389C93.3784 45.5649 92.9246 44.3108 92.9246 42.7772V42.2176H92.6153C91.914 43.7929 90.8109 45.1502 89.3054 46.2902C87.7999 47.4302 85.8099 48 83.3352 48ZM85.5006 43.5233C86.4078 43.5233 87.2947 43.3887 88.1609 43.1192C89.027 42.8496 89.8003 42.4455 90.4809 41.9067C91.1614 41.368 91.6975 40.7254 92.0894 39.9793C92.4814 39.2332 92.6772 38.3835 92.6772 37.4301V24.7461C92.6772 23.7927 92.4814 22.943 92.0894 22.1969C91.6975 21.4508 91.1614 20.8083 90.4809 20.2694C89.8003 19.7305 89.027 19.3264 88.1609 19.057C87.2947 18.7876 86.4078 18.6529 85.5006 18.6529C83.1496 18.6529 81.2729 19.4611 79.8706 21.0777C78.4684 22.6943 77.7672 24.9326 77.7672 27.7927V34.3834C77.7672 37.2435 78.4684 39.4819 79.8706 41.0984C81.2729 42.715 83.1496 43.5233 85.5006 43.5233Z" fill="#787878"/>
<path d="M119.002 48C116.444 48 114.393 47.4404 112.846 46.3212C111.299 45.2021 110.196 43.8964 109.536 42.4041H109.227L105.762 47.2539H102.731V5.72021L98.5236 4.91192V2.17617L109.66 0V19.772H109.969C110.629 18.2798 111.701 16.9741 113.186 15.8549C114.671 14.7358 116.61 14.1762 119.002 14.1762C120.981 14.1762 122.776 14.5596 124.384 15.3264C125.993 16.0933 127.354 17.2021 128.467 18.6528C129.581 20.1036 130.447 21.8757 131.066 23.9689C131.684 26.0622 131.994 28.4352 131.994 31.0881C131.994 33.7408 131.684 36.1141 131.066 38.2073C130.447 40.3004 129.581 42.0724 128.467 43.5233C127.354 44.9742 125.993 46.0828 124.384 46.8497C122.776 47.6167 120.981 48 119.002 48ZM117.3 43.5233C119.651 43.5233 121.528 42.715 122.93 41.0984C124.332 39.4819 125.034 37.2435 125.034 34.3834V27.7927C125.034 24.9326 124.332 22.6943 122.93 21.0777C121.528 19.4611 119.651 18.6528 117.3 18.6528C116.352 18.6528 115.455 18.7876 114.609 19.057C113.764 19.3264 113.001 19.7306 112.32 20.2694C111.639 20.8083 111.103 21.4508 110.711 22.1969C110.32 22.943 110.124 23.7927 110.124 24.7461V37.4301C110.124 38.3835 110.32 39.2332 110.711 39.9793C111.103 40.7254 111.639 41.368 112.32 41.9067C113.001 42.4455 113.764 42.8496 114.609 43.1192C115.455 43.3887 116.352 43.5233 117.3 43.5233Z" fill="#787878"/>
<path d="M136.355 26.2383L138.768 22.8808L145.636 17.4715L147.986 19.2746L145.017 27.4819L142.604 30.8394L136.355 26.2383ZM136.541 15.9171L132.582 14.6114L134.994 7.08808L138.892 8.45596L146.007 13.3679L145.141 16.228L136.541 15.9171ZM144.955 4.1658V0H152.627V4.1658L150.214 12.6218H147.368L144.955 4.1658ZM152.565 27.4819L149.595 19.2746L151.946 17.4715L158.813 22.8808L161.226 26.2383L154.978 30.8394L152.565 27.4819ZM151.575 13.3679L158.69 8.45596L162.587 7.08808L165 14.6114L161.04 15.9171L152.441 16.228L151.575 13.3679Z" fill="#787878"/>
</svg>
