<svg width="400" height="56" viewBox="0 0 400 56" fill="none" xmlns="http://www.w3.org/2000/svg">
<path d="M374.643 42.9538V39.6307H378.859V15.8769L374.643 15.0769V12.3692L385.617 10.2153V15.9384H385.927C387.043 13.0461 389.461 10.2153 393.739 10.2153C397.521 10.2153 400.001 12.1846 400.001 15.6923C400.001 18.4615 398.451 20.1846 395.971 20.1846C393.429 20.1846 391.879 18.6461 391.879 16.6153C391.879 15.2615 392.561 14.2153 393.367 14.0307V13.8461C393.119 13.7846 392.809 13.723 392.189 13.723C389.089 13.723 385.803 17.2923 385.803 20.4307V39.6307H391.259V42.9538H374.643Z" fill="#787878"/>
<path d="M358.159 43.6923C348.612 43.6923 343.094 36.923 343.094 26.9538C343.094 16.7999 349.17 10.2153 357.787 10.2153C366.529 10.2153 371.923 16.2461 371.923 25.2307V26.8923H350.596V28.8615C350.596 35.2 354.129 38.8923 359.523 38.8923C364.297 38.8923 367.149 36.5538 368.575 33.4153L371.241 35.0153C369.691 39.2 365.537 43.6923 358.159 43.6923ZM350.596 22.8307V23.6307H364.731V22.9538C364.731 17.0461 362.437 13.6615 357.787 13.6615C353.199 13.6615 350.596 16.9846 350.596 22.8307Z" fill="#787878"/>
<path d="M322.467 56C315.647 56 310.811 53.2923 310.811 48.923C310.811 46.3384 312.423 44.6769 314.903 44.6769C317.445 44.6769 318.747 46.2769 318.747 48.123C318.747 49.6 317.755 51.2 316.453 51.5077V51.7538C317.817 52.4307 319.553 52.8 322.033 52.8C328.419 52.8 331.333 49.1692 331.333 41.7846V37.7846H331.023C329.783 40.6153 326.745 42.9538 321.971 42.9538C314.035 42.9538 308.951 36.8615 308.951 26.5846C308.951 16.3076 314.035 10.2153 321.971 10.2153C327.055 10.2153 330.155 12.7999 331.457 15.7538H331.767L335.238 10.9538H338.276V39.7538C338.276 50.5846 331.891 56 322.467 56ZM324.141 38.523C327.861 38.523 331.333 36.2461 331.333 32.4923V20.6769C331.333 16.923 327.861 14.6461 324.141 14.6461C319.429 14.6461 316.391 18.0923 316.391 23.6923V29.4769C316.391 35.0769 319.429 38.523 324.141 38.523Z" fill="#787878"/>
<path d="M271.044 42.9538V39.6307H275.26V15.8769L271.044 15.0769V12.3692L282.017 10.2153V15.9384H282.327C283.381 13.1076 286.419 10.2153 291.503 10.2153C299.315 10.2153 302.353 14.2153 302.353 22.1538V39.6307H306.568V42.9538H291.317V39.6307H295.409V22.523C295.409 17.2307 293.425 14.8307 288.961 14.8307C285.675 14.8307 282.203 16.6153 282.203 20.4923V39.6307H286.295V42.9538H271.044Z" fill="#787878"/>
<path d="M254.56 43.6923C245.012 43.6923 239.494 36.923 239.494 26.9538C239.494 16.7999 245.57 10.2153 254.188 10.2153C262.93 10.2153 268.323 16.2461 268.323 25.2307V26.8923H246.996V28.8615C246.996 35.2 250.53 38.8923 255.924 38.8923C260.698 38.8923 263.55 36.5538 264.976 33.4153L267.641 35.0153C266.092 39.2 261.938 43.6923 254.56 43.6923ZM246.996 22.8307V23.6307H261.132V22.9538C261.132 17.0461 258.838 13.6615 254.188 13.6615C249.6 13.6615 246.996 16.9846 246.996 22.8307Z" fill="#787878"/>
<path d="M224.487 43.6923C220.333 43.6923 217.543 41.723 216.737 39.7538H216.489V42.9538H211.777V33.4153H216.489V34.523C216.489 37.9076 218.535 40.0615 223.309 40.0615C227.711 40.0615 230.005 38.5846 230.005 35.3846C230.005 32.923 228.455 31.3846 225.169 30.5846L221.821 29.7846C215.249 28.2461 212.025 25.1692 212.025 19.6307C212.025 13.6615 216.427 10.2153 223.123 10.2153C227.215 10.2153 229.757 11.8153 230.501 13.7846H230.749V10.9538H235.461V20.4923H230.749V18.7076C230.749 15.4461 228.641 13.8461 224.115 13.8461C220.333 13.8461 218.225 15.2615 218.225 18.1538C218.225 20.7999 219.899 22.3999 223.185 23.1999L226.347 23.9384C232.981 25.4153 236.329 28.123 236.329 33.9076C236.329 39.8153 231.741 43.6923 224.487 43.6923Z" fill="#787878"/>
<path d="M196.513 43.6923C192.359 43.6923 189.569 41.723 188.763 39.7538H188.515V42.9538H183.803V33.4153H188.515V34.523C188.515 37.9076 190.561 40.0615 195.335 40.0615C199.737 40.0615 202.031 38.5846 202.031 35.3846C202.031 32.923 200.481 31.3846 197.195 30.5846L193.847 29.7846C187.275 28.2461 184.051 25.1692 184.051 19.6307C184.051 13.6615 188.453 10.2153 195.149 10.2153C199.241 10.2153 201.783 11.8153 202.527 13.7846H202.775V10.9538H207.487V20.4923H202.775V18.7076C202.775 15.4461 200.667 13.8461 196.141 13.8461C192.359 13.8461 190.251 15.2615 190.251 18.1538C190.251 20.7999 191.925 22.3999 195.211 23.1999L198.373 23.9384C205.007 25.4153 208.355 28.123 208.355 33.9076C208.355 39.8153 203.767 43.6923 196.513 43.6923Z" fill="#787878"/>
<path d="M166.823 43.6923C157.276 43.6923 151.758 36.923 151.758 26.9538C151.758 16.7999 157.834 10.2153 166.451 10.2153C175.193 10.2153 180.587 16.2461 180.587 25.2307V26.8923H159.26V28.8615C159.26 35.2 162.794 38.8923 168.187 38.8923C172.961 38.8923 175.813 36.5538 177.239 33.4153L179.905 35.0153C178.355 39.2 174.201 43.6923 166.823 43.6923ZM159.26 22.8307V23.6307H173.395V22.9538C173.395 17.0461 171.101 13.6615 166.451 13.6615C161.864 13.6615 159.26 16.9846 159.26 22.8307Z" fill="#787878"/>
<path d="M100 42.9539V39.6308H104.526V3.32308H100V0H112.896L124.303 24.0615H124.489L135.959 0H148.606V3.32308H144.08V39.6308H148.606V42.9539H132.239V39.6308H136.765V6.76923H136.455L133.355 14.0308L122.629 36L111.966 14.0308L108.866 6.76923H108.556V39.6308H113.082V42.9539H100Z" fill="#787878"/>
<path d="M84 21.0706L77.617 45H70.383L64 21.0706V3L84 9V21.0706Z" fill="#787878"/>
<path d="M24 21.0706L17.617 45H10.383L4 21.0706V9L24 3V21.0706Z" fill="#787878"/>
<path d="M54 21.0706L47.617 45H40.383L34 21.0706V11H54V21.0706Z" fill="#787878"/>
</svg>
